<svg version="1.1" id="Layer_1" xmlns="http://www.w3.org/2000/svg" xmlns:xlink="http://www.w3.org/1999/xlink" x="0px" y="0px"
	 width="100%" viewBox="0 0 500 500" enable-background="new 0 0 500 500" xml:space="preserve">
<path fill="#FFFFFF" opacity="1.000000" stroke="none" 
	d="
M228.000000,501.000000 
	C152.000015,501.000000 76.500038,501.000000 1.000041,501.000000 
	C1.000027,334.333405 1.000027,167.666779 1.000013,1.000130 
	C167.666565,1.000087 334.333130,1.000087 500.999756,1.000043 
	C500.999847,167.666534 500.999847,334.333069 500.999939,500.999817 
	C410.166656,501.000000 319.333344,501.000000 228.000000,501.000000 
M239.003067,184.002197 
	C239.003067,184.002197 238.999695,183.982010 238.430786,184.227676 
	C237.625809,185.145752 236.820816,186.063843 236.072891,187.696594 
	C237.185669,189.428650 238.298431,191.160721 239.519012,192.814407 
	C239.519012,192.814407 239.635574,192.879074 240.185150,192.824921 
	C240.454941,192.587997 240.724716,192.351059 241.254944,191.855515 
	C241.254944,191.855515 241.621964,191.858749 242.539062,191.944122 
	C243.457794,191.990265 244.376541,192.036407 245.169296,192.787811 
	C244.245270,193.914673 243.276199,195.007874 242.404663,196.173965 
	C237.561905,202.653534 232.089539,208.772934 228.065796,215.728912 
	C221.729660,226.682358 224.254837,239.063629 224.348587,250.929382 
	C224.359756,252.344025 227.173950,254.902252 228.751968,254.952576 
	C240.390137,255.323898 252.044357,255.205963 263.693512,255.212463 
	C267.638672,255.214661 269.638428,252.393066 268.616577,249.355331 
	C266.804779,243.969315 264.562408,238.392349 261.120636,233.968582 
	C255.867325,227.216400 249.423462,221.393250 243.542130,215.122147 
	C243.022125,214.567703 242.922134,213.619339 243.375076,212.457474 
	C246.721146,214.103516 250.067215,215.749557 253.738632,216.668488 
	C254.669998,215.277649 255.601379,213.886826 256.492767,212.555679 
	C255.981232,210.971924 255.464188,209.371124 254.749527,207.158447 
	C256.561523,207.775620 257.487762,208.091095 257.616028,208.134781 
	C258.220306,205.821274 258.740265,203.830551 259.850830,202.178741 
	C261.672791,204.532043 263.494751,206.885361 265.120758,208.985611 
	C267.023102,207.214767 268.472809,205.865219 269.946350,204.493530 
	C270.650238,209.690063 271.228851,213.961823 271.811951,218.266739 
	C281.532318,218.266739 290.350342,218.350250 299.165802,218.235779 
	C304.547760,218.165894 305.868011,216.747070 305.907043,211.295319 
	C305.979706,201.140106 305.995667,190.983932 305.946472,180.828598 
	C305.919647,175.284927 304.300476,173.687744 298.811859,173.664047 
	C291.487061,173.632416 284.161835,173.713318 276.836792,173.713913 
	C270.144165,173.714478 268.896301,172.501694 268.876007,165.983902 
	C268.852173,158.325668 268.847107,150.667297 268.867004,143.009064 
	C268.878174,138.709839 266.972961,136.654556 262.485687,136.720795 
	C251.666611,136.880432 240.842865,136.927414 230.023880,136.790741 
	C225.639450,136.735352 224.058228,138.789108 224.076019,142.838470 
	C224.110397,150.663040 224.095245,158.488144 224.045593,166.312668 
	C224.008362,172.179703 222.573959,173.630600 216.640244,173.683762 
	C208.816010,173.753876 200.990799,173.711365 193.166031,173.730682 
	C188.883972,173.741257 186.854630,175.683121 186.926071,180.186218 
	C187.092453,190.672150 187.110596,201.164780 186.925095,211.650024 
	C186.840744,216.418106 189.004562,218.330856 193.498611,218.305984 
	C198.159943,218.280167 202.827881,218.171936 207.480927,218.374893 
	C210.533463,218.508026 212.216782,217.285873 213.818222,214.698303 
	C220.411728,204.044800 220.195755,192.133545 220.914413,179.377808 
	C222.872055,181.106277 224.501846,182.545303 226.202759,184.047119 
	C226.877991,182.964554 227.485672,181.990311 228.816956,181.015305 
	C230.609543,181.888016 232.402145,182.760727 234.495804,183.779999 
	C234.678116,182.719772 234.830490,181.833618 235.488098,180.951263 
	C235.656403,180.945374 235.824707,180.939484 236.371353,181.475525 
	C237.219620,181.655533 238.067902,181.835541 238.939804,182.678680 
	C238.954163,183.120972 238.968521,183.563248 239.003067,184.002197 
M104.773094,343.719513 
	C104.279480,344.635773 103.785866,345.552032 102.938049,347.125763 
	C101.547005,343.659576 100.423492,340.945068 99.365387,338.205292 
	C97.329666,332.934143 97.345024,332.928223 94.642624,333.002777 
	C94.642624,339.028961 94.642624,345.028656 94.642624,351.028381 
	C95.114754,351.012909 95.586884,350.997437 96.059013,350.981995 
	C96.059013,346.482697 96.059013,341.983429 96.059013,337.484161 
	C96.317711,337.495911 96.576401,337.507629 96.835098,337.519379 
	C98.716393,342.116058 100.597679,346.712708 102.478973,351.309387 
	C102.908813,351.285126 103.338654,351.260834 103.768494,351.236542 
	C104.579941,348.981598 105.391388,346.726685 106.718147,343.945221 
	C107.566475,341.795135 108.414795,339.645020 109.263123,337.494934 
	C109.693909,337.595093 110.124702,337.695282 110.555496,337.795441 
	C110.555496,342.209320 110.555496,346.623230 110.555496,351.037109 
	C110.828300,350.993500 111.101112,350.949860 111.373917,350.906219 
	C111.373917,344.728973 111.373917,338.551727 111.373917,332.374481 
	C110.745697,332.238617 110.117477,332.102722 109.489258,331.966858 
	C108.031052,335.660400 106.572838,339.353943 104.773094,343.719513 
M224.952393,306.511169 
	C224.952393,303.338531 224.952393,300.165894 224.952393,296.993256 
	C228.578796,301.576630 231.627060,306.128448 233.904099,311.037964 
	C236.144516,315.868469 239.391434,317.125549 244.368469,315.550354 
	C244.368469,306.525391 244.368469,297.435364 244.368469,288.207153 
	C242.554337,288.207153 240.853241,288.207153 238.730255,288.207153 
	C238.730255,294.663239 238.730255,300.781219 238.730255,307.822723 
	C235.520462,302.328735 232.457245,297.924713 230.275284,293.120483 
	C227.984467,288.076538 224.687622,286.732361 219.765762,288.368378 
	C219.765762,297.537140 219.765762,306.639465 219.765762,315.725342 
	C221.597565,315.725342 223.164200,315.725342 224.951385,315.725342 
	C224.951385,312.775299 224.951385,310.128387 224.952393,306.511169 
M315.588654,312.178131 
	C315.588654,309.566406 315.588654,306.954651 315.588654,304.136292 
	C319.488434,304.136292 322.925293,304.136292 326.699097,304.136292 
	C326.699097,308.133087 326.699097,311.917847 326.699097,315.796906 
	C328.803131,315.796906 330.568787,315.796906 332.535767,315.796906 
	C332.535767,306.483673 332.535767,297.404175 332.535767,288.236786 
	C330.492859,288.236786 328.627411,288.236786 326.481018,288.236786 
	C326.481018,291.894257 326.481018,295.175262 326.481018,298.626556 
	C322.794830,298.626556 319.400055,298.626556 315.529144,298.626556 
	C315.529144,294.960419 315.529144,291.556976 315.529144,288.143005 
	C313.290375,288.143005 311.544861,288.143005 309.734131,288.143005 
	C309.734131,297.524353 309.734131,306.623016 309.734131,316.886200 
	C311.797852,314.788818 315.784271,318.444336 315.588654,312.178131 
M173.212997,300.098358 
	C170.595245,300.098358 167.977493,300.098358 165.045441,300.098358 
	C165.204254,302.118622 165.315018,303.527649 165.420242,304.866089 
	C167.275589,305.088776 168.733780,305.263763 170.254486,305.446289 
	C170.254486,307.352661 170.254486,309.073822 170.254486,312.473450 
	C166.601486,310.865692 162.885040,310.366638 161.250229,308.255554 
	C158.505554,304.711212 158.578781,300.029999 161.160538,296.068481 
	C164.505966,290.935059 169.499817,292.483551 174.507263,293.637329 
	C175.091431,292.176331 175.621857,290.849762 176.148102,289.533630 
	C168.761551,285.975037 160.551331,287.125610 156.332718,292.203430 
	C152.332977,297.017822 152.195847,306.763031 156.055328,311.916199 
	C159.742371,316.839172 167.927032,317.852539 176.389923,314.360443 
	C176.389923,310.590576 176.543579,306.753418 176.285538,302.944122 
	C176.218155,301.949463 174.869370,301.041626 173.212997,300.098358 
M203.950638,312.421570 
	C204.510529,317.377686 207.987640,315.957977 211.367615,315.807892 
	C208.039124,306.348663 204.810211,297.172424 201.558411,287.931183 
	C199.051865,287.931183 196.747726,287.931183 194.102188,287.931183 
	C190.905304,297.062775 187.664627,306.319458 184.351547,315.782959 
	C186.879181,315.782959 188.816849,315.782959 189.431046,315.782959 
	C191.729797,313.080780 193.166061,309.835114 195.049561,309.550629 
	C197.742783,309.143860 201.766251,307.149139 203.950638,312.421570 
M266.917816,287.877167 
	C263.440796,287.877167 259.963745,287.877167 256.381592,287.877167 
	C256.381592,297.369202 256.381592,306.463013 256.381592,315.759247 
	C261.827454,315.759247 267.053436,315.759247 272.531982,315.759247 
	C272.441620,314.065735 272.367004,312.667938 272.275360,310.950806 
	C268.839447,310.950806 265.714417,310.950806 262.392639,310.950806 
	C262.392639,308.524658 262.392639,306.434387 262.392639,303.921326 
	C265.470673,303.921326 268.411163,303.921326 271.625793,303.921326 
	C271.625793,302.122192 271.625793,300.742950 271.625793,298.974884 
	C268.494049,298.974884 265.549164,298.974884 262.406952,298.974884 
	C262.406952,296.834259 262.406952,295.078400 262.406952,292.754456 
	C265.782227,292.754456 269.017029,292.754456 272.330383,292.754456 
	C272.330383,290.907166 272.330383,289.628265 272.330383,287.881470 
	C270.697113,287.881470 269.241119,287.881470 266.917816,287.877167 
M281.294342,314.045685 
	C285.390717,317.356201 290.150482,316.964813 294.433044,315.288055 
	C296.612579,314.434723 299.000488,311.517120 299.324585,309.250946 
	C299.649353,306.980255 298.020050,303.914886 296.328308,302.016846 
	C294.658142,300.142975 291.687408,299.493011 289.589996,297.905945 
	C288.637756,297.185364 287.896393,295.429047 288.051392,294.275909 
	C288.150055,293.542053 290.079742,292.543915 291.172394,292.563324 
	C293.264557,292.600525 295.345306,293.278656 297.666046,293.737305 
	C298.233887,292.333069 298.770752,291.005432 299.734589,288.621887 
	C295.613800,288.296997 291.893066,287.206818 288.632446,288.002350 
	C286.089081,288.622894 283.252777,291.179565 282.105988,293.611298 
	C280.595490,296.814301 282.180084,300.123840 285.424866,302.109375 
	C287.261200,303.233063 289.347748,304.006836 291.016815,305.324341 
	C292.166534,306.231934 292.793579,307.801666 293.654236,309.075439 
	C292.157593,309.810364 290.652252,311.163239 289.166229,311.142334 
	C286.633972,311.106720 284.113892,310.207886 281.206116,309.590485 
	C281.206116,310.996735 281.206116,312.135590 281.294342,314.045685 
M294.483856,149.949249 
	C293.335022,148.733856 292.251373,147.446716 291.017517,146.324814 
	C289.953644,145.357437 288.785522,144.014603 287.541443,143.867111 
	C286.173431,143.704895 283.385498,144.814163 283.414612,145.206345 
	C283.757874,149.831848 280.278625,149.928146 277.109741,150.552994 
	C277.109741,152.978958 277.109741,155.217224 277.109741,156.785767 
	C279.404938,158.060471 282.557129,158.899658 282.660065,160.019150 
	C283.242737,166.357819 287.145599,164.104736 288.934326,163.962662 
	C291.209381,161.336212 292.311096,158.947556 294.080017,158.249420 
	C298.036865,156.687744 298.713226,153.565735 294.483856,149.949249 
M226.516937,341.840973 
	C225.363037,344.775879 224.209122,347.710785 223.055222,350.645691 
	C226.987381,349.857483 226.121063,344.924347 231.283371,344.777832 
	C236.662949,344.625183 234.838730,350.743988 239.494705,351.114563 
	C236.831635,344.382568 234.383377,338.193604 231.935104,332.004608 
	C231.420822,332.056213 230.906540,332.107819 230.392258,332.159393 
	C229.199127,335.148743 228.006012,338.138123 226.516937,341.840973 
M348.652924,332.125610 
	C342.452667,333.699921 340.316101,336.781921 340.889099,343.324951 
	C341.299347,348.009033 343.985260,350.854736 348.318085,351.195801 
	C353.732544,351.622040 357.160675,348.790985 357.831940,343.299561 
	C358.452972,338.219238 355.835236,332.002258 348.652924,332.125610 
M372.097595,334.975616 
	C372.097595,340.326782 372.097595,345.677948 372.097595,351.029083 
	C372.692383,351.034271 373.287140,351.039459 373.881927,351.044647 
	C374.078613,350.350830 374.270691,349.655640 374.472931,348.963440 
	C375.018738,347.095520 375.568939,345.228851 376.117371,343.361664 
	C377.670990,344.829102 379.261322,346.260071 380.766235,347.775879 
	C381.907257,348.925171 382.939453,350.182495 384.020050,351.391724 
	C384.343658,351.081909 384.667267,350.772064 384.990875,350.462250 
	C383.590271,348.069702 382.189667,345.677155 380.699921,343.132294 
	C383.682831,340.574799 385.605225,337.743378 382.681274,334.206329 
	C380.722137,331.836426 374.899414,331.899841 372.097595,334.975616 
M133.203201,334.465668 
	C134.802628,334.392944 136.402054,334.320251 138.001480,334.247559 
	C137.969223,333.789246 137.936966,333.330963 137.904694,332.872650 
	C134.634109,332.872650 131.363525,332.872650 128.035156,332.872650 
	C128.035156,339.021027 128.035156,344.923523 128.035156,350.480682 
	C131.538223,350.480682 134.758301,350.480682 137.978378,350.480682 
	C137.987122,350.107605 137.995880,349.734497 138.004623,349.361420 
	C135.381851,349.132904 132.759094,348.904388 130.220947,348.683228 
	C130.220947,346.388367 130.220947,344.454376 130.220947,342.494995 
	C132.807434,342.281616 135.173996,342.086395 137.540543,341.891144 
	C137.545593,341.438080 137.550659,340.985016 137.555710,340.531952 
	C135.108658,340.374878 132.661606,340.217834 128.498138,339.950592 
	C130.232330,337.435913 131.257431,335.949493 133.203201,334.465668 
M398.282715,347.247253 
	C398.768372,351.496307 403.279297,352.652069 409.971283,349.421631 
	C406.325043,349.088440 403.696899,348.848297 401.263062,348.625916 
	C401.263062,346.390442 401.263062,344.490631 401.263062,342.608429 
	C403.864624,342.367920 406.121185,342.159302 408.377777,341.950714 
	C408.360229,341.423401 408.342712,340.896118 408.325165,340.368835 
	C405.999878,340.233154 403.674561,340.097473 401.168121,339.951202 
	C401.168121,338.158112 401.168121,336.577332 401.168121,335.019135 
	C403.921814,334.662872 406.438110,334.337311 408.954437,334.011749 
	C408.901398,333.583099 408.848389,333.154480 408.795380,332.725830 
	C405.472260,332.725830 402.149170,332.725830 398.322357,332.725830 
	C398.322357,337.388214 398.322357,341.844818 398.282715,347.247253 
M152.074997,347.288635 
	C152.377838,348.490356 152.289703,350.319336 153.047256,350.791626 
	C157.812195,353.761932 166.123810,349.263123 166.930374,343.456543 
	C168.089737,335.110229 162.501755,331.039429 152.126694,333.087067 
	C152.126694,337.438049 152.126694,341.887329 152.074997,347.288635 
M294.184784,336.301514 
	C296.859863,335.469788 299.534943,334.638092 302.210022,333.806396 
	C299.803619,332.845978 297.063721,332.392822 294.614197,333.039520 
	C293.411835,333.356995 291.690002,336.133820 292.058105,337.062225 
	C292.854492,339.070679 294.805695,340.643646 296.376648,342.307800 
	C296.798737,342.754913 297.715179,342.743286 298.120880,343.196411 
	C299.120270,344.312439 299.954895,345.576019 300.855743,346.780304 
	C299.414429,347.573486 298.052673,348.676361 296.509460,349.072815 
	C294.965515,349.469421 293.240173,349.159882 291.594330,349.159882 
	C291.558380,349.577484 291.522430,349.995087 291.486481,350.412720 
	C292.981415,350.684784 294.469818,351.136475 295.972687,351.191376 
	C299.067657,351.304413 302.178986,350.988739 303.026886,347.249268 
	C303.876984,343.500122 301.319153,342.077911 298.373627,340.731964 
	C296.741180,339.986053 295.513031,338.355255 294.184784,336.301514 
M201.173798,346.193512 
	C201.228683,343.154297 200.095490,339.045532 201.631317,337.339478 
	C203.671585,335.073029 207.793365,334.680420 210.661987,333.615845 
	C207.312897,331.151947 202.590790,331.669708 199.744827,335.325958 
	C196.581512,339.389984 197.313507,346.954437 201.148193,349.828156 
	C204.107956,352.046234 208.858490,351.700928 210.248978,349.841888 
	C207.530746,348.915863 204.560608,347.904022 201.173798,346.193512 
M322.990906,340.531799 
	C322.990906,338.607391 322.990906,336.683014 322.990906,334.861572 
	C325.248718,334.447632 326.978699,334.130463 328.708679,333.813324 
	C328.651825,333.565887 328.594940,333.318451 328.538055,333.071014 
	C324.048248,333.071014 319.558411,333.071014 315.068604,333.071014 
	C315.056549,333.389740 315.044495,333.708466 315.032440,334.027191 
	C316.841614,334.265137 318.650818,334.503113 321.254028,334.845520 
	C321.254028,340.307343 321.254028,345.644440 321.254028,350.981537 
	C321.832977,350.971619 322.411957,350.961700 322.990906,350.951782 
	C322.990906,347.798096 322.990906,344.644409 322.990906,340.531799 
M181.108826,338.726837 
	C181.108826,342.819000 181.108826,346.911194 181.108826,351.003357 
	C181.689789,350.991211 182.270737,350.979095 182.851700,350.966949 
	C182.851700,344.844391 182.851700,338.721832 182.851700,332.599274 
	C182.412354,332.566467 181.972992,332.533630 181.533646,332.500824 
	C181.391235,334.272308 181.248825,336.043823 181.108826,338.726837 
M257.586792,349.039093 
	C255.248535,349.310699 253.909637,348.810455 254.075668,345.912292 
	C254.328812,341.493744 254.141983,337.049988 254.141983,332.616943 
	C253.591736,332.625885 253.041473,332.634827 252.491226,332.643768 
	C252.491226,338.697327 252.491226,344.750854 252.491226,350.425018 
	C255.798950,350.425018 258.983307,350.425018 262.167664,350.425018 
	C262.166046,350.073181 262.164459,349.721313 262.162872,349.369476 
	C260.948334,349.261414 259.733795,349.153351 257.586792,349.039093 
M256.540924,220.286606 
	C256.281433,220.013947 256.024323,219.738724 255.749100,219.483032 
	C255.741959,219.476395 255.536530,219.683197 255.423584,219.790451 
	C255.683624,220.063477 255.943665,220.336487 256.540924,220.286606 
z"/>
<path fill="#F5393A" opacity="1.000000" stroke="none" 
	d="
M239.635574,192.879059 
	C239.635574,192.879074 239.519012,192.814407 239.377167,192.511597 
	C241.761932,189.060165 244.270493,185.896835 246.820694,182.767441 
	C248.974350,180.124649 248.216415,178.967316 244.923737,178.658600 
	C244.855942,177.867447 244.839035,177.413345 244.883026,176.952972 
	C244.943924,176.946716 244.913162,176.828201 245.160400,176.677017 
	C245.196091,175.655243 244.984543,174.784653 244.772980,173.914062 
	C243.808548,174.252274 242.844131,174.590485 241.556061,174.956573 
	C240.501251,175.416931 239.770081,175.849426 238.730316,176.111084 
	C237.817474,173.588638 237.466095,170.765884 233.773865,173.806824 
	C231.679810,176.343063 229.886581,178.679550 228.093353,181.016052 
	C227.485672,181.990311 226.877991,182.964554 226.202759,184.047119 
	C224.501846,182.545303 222.872055,181.106277 220.914413,179.377808 
	C220.195755,192.133545 220.411728,204.044800 213.818222,214.698303 
	C212.216782,217.285873 210.533463,218.508026 207.480927,218.374893 
	C202.827881,218.171936 198.159943,218.280167 193.498611,218.305984 
	C189.004562,218.330856 186.840744,216.418106 186.925095,211.650024 
	C187.110596,201.164780 187.092453,190.672150 186.926071,180.186218 
	C186.854630,175.683121 188.883972,173.741257 193.166031,173.730682 
	C200.990799,173.711365 208.816010,173.753876 216.640244,173.683762 
	C222.573959,173.630600 224.008362,172.179703 224.045593,166.312668 
	C224.095245,158.488144 224.110397,150.663040 224.076019,142.838470 
	C224.058228,138.789108 225.639450,136.735352 230.023880,136.790741 
	C240.842865,136.927414 251.666611,136.880432 262.485687,136.720795 
	C266.972961,136.654556 268.878174,138.709839 268.867004,143.009064 
	C268.847107,150.667297 268.852173,158.325668 268.876007,165.983902 
	C268.896301,172.501694 270.144165,173.714478 276.836792,173.713913 
	C284.161835,173.713318 291.487061,173.632416 298.811859,173.664047 
	C304.300476,173.687744 305.919647,175.284927 305.946472,180.828598 
	C305.995667,190.983932 305.979706,201.140106 305.907043,211.295319 
	C305.868011,216.747070 304.547760,218.165894 299.165802,218.235779 
	C290.350342,218.350250 281.532318,218.266739 271.811951,218.266739 
	C271.228851,213.961823 270.650238,209.690063 269.946350,204.493530 
	C268.472809,205.865219 267.023102,207.214767 265.120758,208.985611 
	C263.494751,206.885361 261.672791,204.532043 259.390991,201.645660 
	C254.956329,200.819748 250.981522,200.526947 246.649078,200.207794 
	C247.087372,203.667847 241.846664,206.267105 245.916321,210.078400 
	C244.693527,211.188766 243.660294,212.021347 242.627060,212.853928 
	C242.922134,213.619339 243.022125,214.567703 243.542130,215.122147 
	C249.423462,221.393250 255.867325,227.216400 261.120636,233.968582 
	C264.562408,238.392349 266.804779,243.969315 268.616577,249.355331 
	C269.638428,252.393066 267.638672,255.214661 263.693512,255.212463 
	C252.044357,255.205963 240.390137,255.323898 228.751968,254.952576 
	C227.173950,254.902252 224.359756,252.344025 224.348587,250.929382 
	C224.254837,239.063629 221.729660,226.682358 228.065796,215.728912 
	C232.089539,208.772934 237.561905,202.653534 242.404663,196.173965 
	C243.276199,195.007874 244.245270,193.914673 245.530823,192.255829 
	C245.081711,189.475357 245.081711,189.475357 241.621964,191.858749 
	C241.621964,191.858749 241.254944,191.855515 240.842789,191.987610 
	C240.165604,192.372833 239.900589,192.625946 239.635574,192.879059 
M256.970520,140.169403 
	C255.757965,139.449692 254.575821,138.178513 253.327393,138.109665 
	C248.897308,137.865372 244.444595,138.031296 239.187210,138.025620 
	C237.402985,138.358719 235.325546,138.225571 233.896912,139.124054 
	C231.108475,140.877762 226.758682,142.968018 226.461838,145.344437 
	C225.508118,152.979477 226.107025,160.808472 226.107025,168.993927 
	C231.182526,168.993927 235.591873,168.993927 240.567734,169.064117 
	C241.024826,169.953110 241.481918,170.842102 242.011353,171.871765 
	C243.734222,171.230148 245.370087,170.620941 247.496902,170.010193 
	C247.496902,170.010193 247.987793,170.005493 247.992355,170.841492 
	C248.609924,173.569260 249.656769,176.282196 249.751648,179.028030 
	C249.925125,184.047928 252.846497,185.125778 256.997284,185.792587 
	C256.997284,188.917175 256.997284,192.041763 256.997284,193.913330 
	C261.576660,193.669861 265.147522,193.480011 269.397247,193.254074 
	C266.924042,195.760803 265.423920,197.281265 263.923798,198.801727 
	C264.304871,199.234238 264.685944,199.666748 265.067017,200.099258 
	C266.404510,199.563004 267.721588,198.966660 269.083893,198.503433 
	C271.632019,197.637024 272.966034,198.518448 272.762726,201.292664 
	C272.598877,203.528381 272.503174,205.783340 272.121704,207.985504 
	C271.562531,211.213745 273.017975,212.718170 276.037506,212.952606 
	C277.855957,213.093765 279.702637,212.878876 281.519653,213.029373 
	C284.447052,213.271835 287.186462,212.482391 290.008179,215.363022 
	C293.310974,218.734863 303.890472,214.093399 303.950409,209.722610 
	C304.087189,199.749054 303.971222,189.772263 304.002319,179.796921 
	C304.010925,177.033417 302.703979,175.979141 299.999146,176.009109 
	C289.925812,176.120697 279.851318,176.159378 269.777344,176.151276 
	C267.278809,176.149261 263.340515,171.287155 264.610107,169.725311 
	C265.890900,168.149734 268.611176,167.520523 265.529541,165.045135 
	C263.984741,163.804260 262.873932,160.556091 261.679962,160.612473 
	C257.614868,160.804367 258.383972,157.712067 258.141418,155.926392 
	C257.470947,150.990433 257.344177,145.980621 256.970520,140.169403 
M211.007126,199.835190 
	C211.286194,199.048309 211.565262,198.261414 211.890152,197.345322 
	C213.090836,200.108826 214.133453,202.508499 215.176056,204.908188 
	C215.977142,204.622864 216.778214,204.337524 217.579300,204.052185 
	C216.413208,199.902542 215.247116,195.752899 214.344147,192.539627 
	C215.838013,191.163422 218.105453,190.043365 218.434708,188.507736 
	C218.787170,186.863907 217.313751,184.828583 216.540970,182.698746 
	C214.341385,184.247208 213.157272,185.080795 211.743454,186.076096 
	C207.350143,181.709305 214.995956,180.191589 213.577515,176.675552 
	C206.577423,176.675552 199.563187,176.627884 192.550064,176.695435 
	C188.978958,176.729813 187.798492,178.677216 187.942230,182.197479 
	C188.186066,188.169357 187.968933,194.158798 188.022751,200.140152 
	C188.058350,204.099136 186.893921,208.428833 191.699112,210.928299 
	C192.517624,211.354050 192.550949,213.289307 193.054932,214.864471 
	C198.089325,207.877899 204.380981,212.013931 209.536606,212.977814 
	C210.909973,210.749649 212.543350,209.244324 212.645203,207.641647 
	C212.769623,205.683884 211.597229,203.647766 211.016098,201.636749 
	C210.927444,201.329926 211.002914,200.975662 211.007126,199.835190 
M247.592087,184.516418 
	C247.592087,184.516418 247.480499,184.582916 247.592087,184.516418 
z"/>
<path fill="#111111" opacity="1.000000" stroke="none" 
	d="
M224.951889,306.996338 
	C224.951385,310.128387 224.951385,312.775299 224.951385,315.725342 
	C223.164200,315.725342 221.597565,315.725342 219.765762,315.725342 
	C219.765762,306.639465 219.765762,297.537140 219.765762,288.368378 
	C224.687622,286.732361 227.984467,288.076538 230.275284,293.120483 
	C232.457245,297.924713 235.520462,302.328735 238.730255,307.822723 
	C238.730255,300.781219 238.730255,294.663239 238.730255,288.207153 
	C240.853241,288.207153 242.554337,288.207153 244.368469,288.207153 
	C244.368469,297.435364 244.368469,306.525391 244.368469,315.550354 
	C239.391434,317.125549 236.144516,315.868469 233.904099,311.037964 
	C231.627060,306.128448 228.578796,301.576630 224.952393,296.993256 
	C224.952393,300.165894 224.952393,303.338531 224.951889,306.996338 
z"/>
<path fill="#111111" opacity="1.000000" stroke="none" 
	d="
M315.577209,312.637939 
	C315.784271,318.444336 311.797852,314.788818 309.734131,316.886200 
	C309.734131,306.623016 309.734131,297.524353 309.734131,288.143005 
	C311.544861,288.143005 313.290375,288.143005 315.529144,288.143005 
	C315.529144,291.556976 315.529144,294.960419 315.529144,298.626556 
	C319.400055,298.626556 322.794830,298.626556 326.481018,298.626556 
	C326.481018,295.175262 326.481018,291.894257 326.481018,288.236786 
	C328.627411,288.236786 330.492859,288.236786 332.535767,288.236786 
	C332.535767,297.404175 332.535767,306.483673 332.535767,315.796906 
	C330.568787,315.796906 328.803131,315.796906 326.699097,315.796906 
	C326.699097,311.917847 326.699097,308.133087 326.699097,304.136292 
	C322.925293,304.136292 319.488434,304.136292 315.588654,304.136292 
	C315.588654,306.954651 315.588654,309.566406 315.577209,312.637939 
z"/>
<path fill="#0F0F0F" opacity="1.000000" stroke="none" 
	d="
M173.661041,300.096130 
	C174.869370,301.041626 176.218155,301.949463 176.285538,302.944122 
	C176.543579,306.753418 176.389923,310.590576 176.389923,314.360443 
	C167.927032,317.852539 159.742371,316.839172 156.055328,311.916199 
	C152.195847,306.763031 152.332977,297.017822 156.332718,292.203430 
	C160.551331,287.125610 168.761551,285.975037 176.148102,289.533630 
	C175.621857,290.849762 175.091431,292.176331 174.507263,293.637329 
	C169.499817,292.483551 164.505966,290.935059 161.160538,296.068481 
	C158.578781,300.029999 158.505554,304.711212 161.250229,308.255554 
	C162.885040,310.366638 166.601486,310.865692 170.254486,312.473450 
	C170.254486,309.073822 170.254486,307.352661 170.254486,305.446289 
	C168.733780,305.263763 167.275589,305.088776 165.420242,304.866089 
	C165.315018,303.527649 165.204254,302.118622 165.045441,300.098358 
	C167.977493,300.098358 170.595245,300.098358 173.661041,300.096130 
z"/>
<path fill="#0B0B0B" opacity="1.000000" stroke="none" 
	d="
M203.821320,311.989136 
	C201.766251,307.149139 197.742783,309.143860 195.049561,309.550629 
	C193.166061,309.835114 191.729797,313.080780 189.431046,315.782959 
	C188.816849,315.782959 186.879181,315.782959 184.351547,315.782959 
	C187.664627,306.319458 190.905304,297.062775 194.102188,287.931183 
	C196.747726,287.931183 199.051865,287.931183 201.558411,287.931183 
	C204.810211,297.172424 208.039124,306.348663 211.367615,315.807892 
	C207.987640,315.957977 204.510529,317.377686 203.821320,311.989136 
M194.732605,302.883850 
	C196.736313,303.468994 198.740005,304.054138 201.775650,304.940674 
	C200.274002,300.200348 199.218277,296.867706 197.804153,292.403687 
	C196.593201,296.461761 195.764023,299.240448 194.732605,302.883850 
z"/>
<path fill="#0F0F0F" opacity="1.000000" stroke="none" 
	d="
M267.351440,287.879333 
	C269.241119,287.881470 270.697113,287.881470 272.330383,287.881470 
	C272.330383,289.628265 272.330383,290.907166 272.330383,292.754456 
	C269.017029,292.754456 265.782227,292.754456 262.406952,292.754456 
	C262.406952,295.078400 262.406952,296.834259 262.406952,298.974884 
	C265.549164,298.974884 268.494049,298.974884 271.625793,298.974884 
	C271.625793,300.742950 271.625793,302.122192 271.625793,303.921326 
	C268.411163,303.921326 265.470673,303.921326 262.392639,303.921326 
	C262.392639,306.434387 262.392639,308.524658 262.392639,310.950806 
	C265.714417,310.950806 268.839447,310.950806 272.275360,310.950806 
	C272.367004,312.667938 272.441620,314.065735 272.531982,315.759247 
	C267.053436,315.759247 261.827454,315.759247 256.381592,315.759247 
	C256.381592,306.463013 256.381592,297.369202 256.381592,287.877167 
	C259.963745,287.877167 263.440796,287.877167 267.351440,287.879333 
z"/>
<path fill="#111111" opacity="1.000000" stroke="none" 
	d="
M281.250244,313.660034 
	C281.206116,312.135590 281.206116,310.996735 281.206116,309.590485 
	C284.113892,310.207886 286.633972,311.106720 289.166229,311.142334 
	C290.652252,311.163239 292.157593,309.810364 293.654236,309.075439 
	C292.793579,307.801666 292.166534,306.231934 291.016815,305.324341 
	C289.347748,304.006836 287.261200,303.233063 285.424866,302.109375 
	C282.180084,300.123840 280.595490,296.814301 282.105988,293.611298 
	C283.252777,291.179565 286.089081,288.622894 288.632446,288.002350 
	C291.893066,287.206818 295.613800,288.296997 299.734589,288.621887 
	C298.770752,291.005432 298.233887,292.333069 297.666046,293.737305 
	C295.345306,293.278656 293.264557,292.600525 291.172394,292.563324 
	C290.079742,292.543915 288.150055,293.542053 288.051392,294.275909 
	C287.896393,295.429047 288.637756,297.185364 289.589996,297.905945 
	C291.687408,299.493011 294.658142,300.142975 296.328308,302.016846 
	C298.020050,303.914886 299.649353,306.980255 299.324585,309.250946 
	C299.000488,311.517120 296.612579,314.434723 294.433044,315.288055 
	C290.150482,316.964813 285.390717,317.356201 281.250244,313.660034 
z"/>
<path fill="#EF3A3C" opacity="1.000000" stroke="none" 
	d="
M294.883698,149.969711 
	C298.713226,153.565735 298.036865,156.687744 294.080017,158.249420 
	C292.311096,158.947556 291.209381,161.336212 288.934326,163.962662 
	C287.145599,164.104736 283.242737,166.357819 282.660065,160.019150 
	C282.557129,158.899658 279.404938,158.060471 277.109741,156.785767 
	C277.109741,155.217224 277.109741,152.978958 277.109741,150.552994 
	C280.278625,149.928146 283.757874,149.831848 283.414612,145.206345 
	C283.385498,144.814163 286.173431,143.704895 287.541443,143.867111 
	C288.785522,144.014603 289.953644,145.357437 291.017517,146.324814 
	C292.251373,147.446716 293.335022,148.733856 294.883698,149.969711 
z"/>
<path fill="#FEDAD9" opacity="1.000000" stroke="none" 
	d="
M246.105896,209.800613 
	C241.846664,206.267105 247.087372,203.667847 246.649078,200.207794 
	C250.981522,200.526947 254.956329,200.819748 259.095703,201.476196 
	C258.740265,203.830551 258.220306,205.821274 257.616028,208.134781 
	C257.487762,208.091095 256.561523,207.775620 254.749527,207.158447 
	C255.464188,209.371124 255.981232,210.971924 256.492767,212.555679 
	C255.601379,213.886826 254.669998,215.277649 253.355759,216.796280 
	C251.008118,214.601227 249.043350,212.278381 247.442932,209.950760 
	C248.473404,209.467239 249.139557,208.988464 249.805695,208.509705 
	C249.278214,208.072464 248.750748,207.635239 248.223267,207.197998 
	C247.830338,208.105698 247.437393,209.013412 246.808075,209.904663 
	C246.571671,209.888214 246.105896,209.800613 246.105896,209.800613 
M255.628662,203.502563 
	C255.628662,203.502563 255.502731,203.582245 255.628662,203.502563 
z"/>
<path fill="#272727" opacity="1.000000" stroke="none" 
	d="
M226.664917,341.484222 
	C228.006012,338.138123 229.199127,335.148743 230.392258,332.159393 
	C230.906540,332.107819 231.420822,332.056213 231.935104,332.004608 
	C234.383377,338.193604 236.831635,344.382568 239.494705,351.114563 
	C234.838730,350.743988 236.662949,344.625183 231.283371,344.777832 
	C226.121063,344.924347 226.987381,349.857483 223.055222,350.645691 
	C224.209122,347.710785 225.363037,344.775879 226.664917,341.484222 
z"/>
<path fill="#272727" opacity="1.000000" stroke="none" 
	d="
M349.049469,332.110901 
	C355.835236,332.002258 358.452972,338.219238 357.831940,343.299561 
	C357.160675,348.790985 353.732544,351.622040 348.318085,351.195801 
	C343.985260,350.854736 341.299347,348.009033 340.889099,343.324951 
	C340.316101,336.781921 342.452667,333.699921 349.049469,332.110901 
M344.478180,346.931854 
	C349.111023,350.557190 354.250488,349.726898 354.816284,344.851044 
	C355.174133,341.766937 354.058685,338.201172 352.582977,335.386841 
	C352.080292,334.428162 348.083282,334.335480 346.344025,335.191071 
	C342.635406,337.015320 342.893768,340.796265 343.464569,344.341492 
	C343.568237,344.985229 343.880432,345.595428 344.478180,346.931854 
z"/>
<path fill="#272727" opacity="1.000000" stroke="none" 
	d="
M372.104675,334.530884 
	C374.899414,331.899841 380.722137,331.836426 382.681274,334.206329 
	C385.605225,337.743378 383.682831,340.574799 380.699921,343.132294 
	C382.189667,345.677155 383.590271,348.069702 384.990875,350.462250 
	C384.667267,350.772064 384.343658,351.081909 384.020050,351.391724 
	C382.939453,350.182495 381.907257,348.925171 380.766235,347.775879 
	C379.261322,346.260071 377.670990,344.829102 376.117371,343.361664 
	C375.568939,345.228851 375.018738,347.095520 374.472931,348.963440 
	C374.270691,349.655640 374.078613,350.350830 373.881927,351.044647 
	C373.287140,351.039459 372.692383,351.034271 372.097595,351.029083 
	C372.097595,345.677948 372.097595,340.326782 372.104675,334.530884 
M379.035889,341.166260 
	C379.846527,339.650085 380.657166,338.133911 381.467773,336.617737 
	C379.375275,335.710754 377.282806,334.803802 375.190308,333.896820 
	C375.080200,337.667786 372.243652,342.000000 379.035889,341.166260 
z"/>
<path fill="#181818" opacity="1.000000" stroke="none" 
	d="
M132.742859,334.464355 
	C131.257431,335.949493 130.232330,337.435913 128.498138,339.950592 
	C132.661606,340.217834 135.108658,340.374878 137.555710,340.531952 
	C137.550659,340.985016 137.545593,341.438080 137.540543,341.891144 
	C135.173996,342.086395 132.807434,342.281616 130.220947,342.494995 
	C130.220947,344.454376 130.220947,346.388367 130.220947,348.683228 
	C132.759094,348.904388 135.381851,349.132904 138.004623,349.361420 
	C137.995880,349.734497 137.987122,350.107605 137.978378,350.480682 
	C134.758301,350.480682 131.538223,350.480682 128.035156,350.480682 
	C128.035156,344.923523 128.035156,339.021027 128.035156,332.872650 
	C131.363525,332.872650 134.634109,332.872650 137.904694,332.872650 
	C137.936966,333.330963 137.969223,333.789246 138.001480,334.247559 
	C136.402054,334.320251 134.802628,334.392944 132.742859,334.464355 
z"/>
<path fill="#3E3E3E" opacity="1.000000" stroke="none" 
	d="
M398.302551,346.774323 
	C398.322357,341.844818 398.322357,337.388214 398.322357,332.725830 
	C402.149170,332.725830 405.472260,332.725830 408.795380,332.725830 
	C408.848389,333.154480 408.901398,333.583099 408.954437,334.011749 
	C406.438110,334.337311 403.921814,334.662872 401.168121,335.019135 
	C401.168121,336.577332 401.168121,338.158112 401.168121,339.951202 
	C403.674561,340.097473 405.999878,340.233154 408.325165,340.368835 
	C408.342712,340.896118 408.360229,341.423401 408.377777,341.950714 
	C406.121185,342.159302 403.864624,342.367920 401.263062,342.608429 
	C401.263062,344.490631 401.263062,346.390442 401.263062,348.625916 
	C403.696899,348.848297 406.325043,349.088440 409.971283,349.421631 
	C403.279297,352.652069 398.768372,351.496307 398.302551,346.774323 
z"/>
<path fill="#272727" opacity="1.000000" stroke="none" 
	d="
M152.100845,346.812622 
	C152.126694,341.887329 152.126694,337.438049 152.126694,333.087067 
	C162.501755,331.039429 168.089737,335.110229 166.930374,343.456543 
	C166.123810,349.263123 157.812195,353.761932 153.047256,350.791626 
	C152.289703,350.319336 152.377838,348.490356 152.100845,346.812622 
M154.431900,341.582611 
	C154.431900,343.995544 154.431900,346.408447 154.431900,348.775238 
	C161.807037,349.162170 164.895828,346.757111 164.657013,341.343384 
	C164.420181,335.974731 161.545578,334.047058 154.432114,334.883423 
	C154.432114,336.772369 154.432114,338.725800 154.431900,341.582611 
z"/>
<path fill="#272727" opacity="1.000000" stroke="none" 
	d="
M294.143738,336.712402 
	C295.513031,338.355255 296.741180,339.986053 298.373627,340.731964 
	C301.319153,342.077911 303.876984,343.500122 303.026886,347.249268 
	C302.178986,350.988739 299.067657,351.304413 295.972687,351.191376 
	C294.469818,351.136475 292.981415,350.684784 291.486481,350.412720 
	C291.522430,349.995087 291.558380,349.577484 291.594330,349.159882 
	C293.240173,349.159882 294.965515,349.469421 296.509460,349.072815 
	C298.052673,348.676361 299.414429,347.573486 300.855743,346.780304 
	C299.954895,345.576019 299.120270,344.312439 298.120880,343.196411 
	C297.715179,342.743286 296.798737,342.754913 296.376648,342.307800 
	C294.805695,340.643646 292.854492,339.070679 292.058105,337.062225 
	C291.690002,336.133820 293.411835,333.356995 294.614197,333.039520 
	C297.063721,332.392822 299.803619,332.845978 302.210022,333.806396 
	C299.534943,334.638092 296.859863,335.469788 294.143738,336.712402 
z"/>
<path fill="#272727" opacity="1.000000" stroke="none" 
	d="
M201.382126,346.542847 
	C204.560608,347.904022 207.530746,348.915863 210.248978,349.841888 
	C208.858490,351.700928 204.107956,352.046234 201.148193,349.828156 
	C197.313507,346.954437 196.581512,339.389984 199.744827,335.325958 
	C202.590790,331.669708 207.312897,331.151947 210.661987,333.615845 
	C207.793365,334.680420 203.671585,335.073029 201.631317,337.339478 
	C200.095490,339.045532 201.228683,343.154297 201.382126,346.542847 
z"/>
<path fill="#181818" opacity="1.000000" stroke="none" 
	d="
M106.202827,344.471741 
	C105.391388,346.726685 104.579941,348.981598 103.768494,351.236542 
	C103.338654,351.260834 102.908813,351.285126 102.478973,351.309387 
	C100.597679,346.712708 98.716393,342.116058 96.835098,337.519379 
	C96.576401,337.507629 96.317711,337.495911 96.059013,337.484161 
	C96.059013,341.983429 96.059013,346.482697 96.059013,350.981995 
	C95.586884,350.997437 95.114754,351.012909 94.642624,351.028381 
	C94.642624,345.028656 94.642624,339.028961 94.642624,333.002777 
	C97.345024,332.928223 97.329666,332.934143 99.365387,338.205292 
	C100.423492,340.945068 101.547005,343.659576 102.938049,347.125763 
	C103.785866,345.552032 104.279480,344.635773 105.196350,343.557739 
	C105.814018,343.754547 106.008423,344.113159 106.202827,344.471741 
z"/>
<path fill="#F6F6F6" opacity="1.000000" stroke="none" 
	d="
M244.974609,178.995636 
	C248.216415,178.967316 248.974350,180.124649 246.820694,182.767441 
	C244.270493,185.896835 241.761932,189.060165 239.323242,192.550781 
	C238.298431,191.160721 237.185669,189.428650 236.415039,187.339355 
	C237.504700,185.982071 238.252197,184.982040 238.999695,183.982010 
	C238.999695,183.982010 239.003067,184.002197 239.280212,183.874939 
	C240.221664,183.021393 240.885971,182.295105 241.550278,181.568817 
	C241.400513,181.365570 241.250732,181.162338 241.100967,180.959091 
	C240.372696,181.311234 239.644424,181.663376 238.916168,182.015533 
	C238.067902,181.835541 237.219620,181.655533 236.332199,180.928696 
	C237.208328,179.015213 238.123627,177.648575 239.038910,176.281921 
	C239.770081,175.849426 240.501251,175.416931 241.901428,174.994644 
	C243.351349,175.612640 244.132248,176.220428 244.913147,176.828217 
	C244.913162,176.828201 244.943924,176.946716 244.624390,177.083145 
	C243.955978,177.884933 243.607086,178.550308 243.258179,179.215683 
	C243.830338,179.142334 244.402466,179.068985 244.974609,178.995636 
z"/>
<path fill="#0B0B0B" opacity="1.000000" stroke="none" 
	d="
M322.990906,341.011261 
	C322.990906,344.644409 322.990906,347.798096 322.990906,350.951782 
	C322.411957,350.961700 321.832977,350.971619 321.254028,350.981537 
	C321.254028,345.644440 321.254028,340.307343 321.254028,334.845520 
	C318.650818,334.503113 316.841614,334.265137 315.032440,334.027191 
	C315.044495,333.708466 315.056549,333.389740 315.068604,333.071014 
	C319.558411,333.071014 324.048248,333.071014 328.538055,333.071014 
	C328.594940,333.318451 328.651825,333.565887 328.708679,333.813324 
	C326.978699,334.130463 325.248718,334.447632 322.990906,334.861572 
	C322.990906,336.683014 322.990906,338.607391 322.990906,341.011261 
z"/>
<path fill="#272727" opacity="1.000000" stroke="none" 
	d="
M106.460487,344.208496 
	C106.008423,344.113159 105.814018,343.754547 105.367119,343.221741 
	C106.572838,339.353943 108.031052,335.660400 109.489258,331.966858 
	C110.117477,332.102722 110.745697,332.238617 111.373917,332.374481 
	C111.373917,338.551727 111.373917,344.728973 111.373917,350.906219 
	C111.101112,350.949860 110.828300,350.993500 110.555496,351.037109 
	C110.555496,346.623230 110.555496,342.209320 110.555496,337.795441 
	C110.124702,337.695282 109.693909,337.595093 109.263123,337.494934 
	C108.414795,339.645020 107.566475,341.795135 106.460487,344.208496 
z"/>
<path fill="#272727" opacity="1.000000" stroke="none" 
	d="
M181.107620,338.271057 
	C181.248825,336.043823 181.391235,334.272308 181.533646,332.500824 
	C181.972992,332.533630 182.412354,332.566467 182.851700,332.599274 
	C182.851700,338.721832 182.851700,344.844391 182.851700,350.966949 
	C182.270737,350.979095 181.689789,350.991211 181.108826,351.003357 
	C181.108826,346.911194 181.108826,342.819000 181.107620,338.271057 
z"/>
<path fill="#0B0B0B" opacity="1.000000" stroke="none" 
	d="
M258.053040,349.042175 
	C259.733795,349.153351 260.948334,349.261414 262.162872,349.369476 
	C262.164459,349.721313 262.166046,350.073181 262.167664,350.425018 
	C258.983307,350.425018 255.798950,350.425018 252.491226,350.425018 
	C252.491226,344.750854 252.491226,338.697327 252.491226,332.643768 
	C253.041473,332.634827 253.591736,332.625885 254.141983,332.616943 
	C254.141983,337.049988 254.328812,341.493744 254.075668,345.912292 
	C253.909637,348.810455 255.248535,349.310699 258.053040,349.042175 
z"/>
<path fill="#EF3A3C" opacity="1.000000" stroke="none" 
	d="
M247.078583,209.955521 
	C249.043350,212.278381 251.008118,214.601227 253.193085,217.159836 
	C250.067215,215.749557 246.721146,214.103516 243.001068,212.655701 
	C243.660294,212.021347 244.693527,211.188766 245.916321,210.078400 
	C246.105896,209.800613 246.571671,209.888214 246.788666,209.940979 
	C247.005661,209.993729 247.078598,209.955521 247.078583,209.955521 
z"/>
<path fill="#F6F6F6" opacity="1.000000" stroke="none" 
	d="
M228.455154,181.015686 
	C229.886581,178.679550 231.679810,176.343063 233.764832,174.189575 
	C234.051697,174.880890 234.046783,175.389221 233.926392,176.180130 
	C233.860672,177.299271 233.910461,178.135834 233.983139,179.268127 
	C234.331650,180.025055 234.657257,180.486252 234.982880,180.947449 
	C234.830490,181.833618 234.678116,182.719772 234.495804,183.779999 
	C232.402145,182.760727 230.609543,181.888016 228.455154,181.015686 
z"/>
<path fill="#FEDAD9" opacity="1.000000" stroke="none" 
	d="
M235.235489,180.949356 
	C234.657257,180.486252 234.331650,180.025055 234.318359,179.218445 
	C234.434402,177.881210 234.238144,176.889374 234.041885,175.897537 
	C234.046783,175.389221 234.051697,174.880890 234.065659,173.989838 
	C237.466095,170.765884 237.817474,173.588638 238.730316,176.111084 
	C238.123627,177.648575 237.208328,179.015213 236.143036,180.657715 
	C235.824707,180.939484 235.656403,180.945374 235.235489,180.949356 
z"/>
<path fill="#F6F6F6" opacity="1.000000" stroke="none" 
	d="
M242.080505,191.901428 
	C245.081711,189.475357 245.081711,189.475357 245.593811,191.903214 
	C244.376541,192.036407 243.457794,191.990265 242.080505,191.901428 
z"/>
<path fill="#FEDAD9" opacity="1.000000" stroke="none" 
	d="
M238.715240,184.104843 
	C238.252197,184.982040 237.504700,185.982071 236.386505,186.982025 
	C236.820816,186.063843 237.625809,185.145752 238.715240,184.104843 
z"/>
<path fill="#FEDAD9" opacity="1.000000" stroke="none" 
	d="
M238.927979,182.347107 
	C239.644424,181.663376 240.372696,181.311234 241.100967,180.959091 
	C241.250732,181.162338 241.400513,181.365570 241.550278,181.568817 
	C240.885971,182.295105 240.221664,183.021393 239.270111,183.876617 
	C238.968521,183.563248 238.954163,183.120972 238.927979,182.347107 
z"/>
<path fill="#FEDAD9" opacity="1.000000" stroke="none" 
	d="
M256.372314,220.448059 
	C255.943665,220.336487 255.683624,220.063477 255.423584,219.790466 
	C255.536530,219.683197 255.741959,219.476395 255.749100,219.483032 
	C256.024323,219.738724 256.281433,220.013947 256.372314,220.448059 
z"/>
<path fill="#F6F6F6" opacity="1.000000" stroke="none" 
	d="
M239.910370,192.851990 
	C239.900589,192.625946 240.165604,192.372833 240.712555,192.116913 
	C240.724716,192.351059 240.454941,192.587997 239.910370,192.851990 
z"/>
<path fill="#FF3131" opacity="1.000000" stroke="none" 
	d="
M240.001221,168.993927 
	C235.591873,168.993927 231.182526,168.993927 226.107025,168.993927 
	C226.107025,160.808472 225.508118,152.979477 226.461838,145.344437 
	C226.758682,142.968018 231.108475,140.877762 233.896912,139.124054 
	C235.325546,138.225571 237.402985,138.358719 239.610748,138.444458 
	C241.252335,139.575134 242.439468,140.829391 243.694016,140.900879 
	C248.117661,141.153030 252.564438,140.999603 257.002441,141.000000 
	C257.344177,145.980621 257.470947,150.990433 258.141418,155.926392 
	C258.383972,157.712067 257.614868,160.804367 261.679962,160.612473 
	C262.873932,160.556091 263.984741,163.804260 265.529541,165.045135 
	C268.611176,167.520523 265.890900,168.149734 264.610107,169.725311 
	C263.340515,171.287155 267.278809,176.149261 269.777344,176.151276 
	C279.851318,176.159378 289.925812,176.120697 299.999146,176.009109 
	C302.703979,175.979141 304.010925,177.033417 304.002319,179.796921 
	C303.971222,189.772263 304.087189,199.749054 303.950409,209.722610 
	C303.890472,214.093399 293.310974,218.734863 290.008179,215.363022 
	C287.186462,212.482391 284.447052,213.271835 281.519653,213.029373 
	C279.702637,212.878876 277.855957,213.093765 276.037506,212.952606 
	C273.017975,212.718170 271.562531,211.213745 272.121704,207.985504 
	C272.503174,205.783340 272.598877,203.528381 272.762726,201.292664 
	C272.966034,198.518448 271.632019,197.637024 269.083893,198.503433 
	C267.721588,198.966660 266.404510,199.563004 265.067017,200.099258 
	C264.685944,199.666748 264.304871,199.234238 263.923798,198.801727 
	C265.423920,197.281265 266.924042,195.760803 269.397247,193.254074 
	C265.147522,193.480011 261.576660,193.669861 256.997284,193.913330 
	C256.997284,192.041763 256.997284,188.917175 256.998535,184.952179 
	C256.252106,179.071106 259.526825,174.031326 257.373596,168.918365 
	C259.914093,164.476837 259.177521,163.726639 251.522842,163.529205 
	C252.583542,165.017990 253.291779,166.012039 253.940857,167.363434 
	C251.917068,168.482346 249.952423,169.243927 247.987793,170.005493 
	C247.987793,170.005493 247.496902,170.010193 247.111938,169.695160 
	C243.464310,165.155060 242.574265,165.103943 240.001221,168.993927 
M233.369431,165.707047 
	C234.337524,166.092010 235.305618,166.476990 236.273712,166.861954 
	C236.397568,166.277664 236.521439,165.693359 236.645294,165.109070 
	C235.635483,165.109070 234.625671,165.109070 233.369431,165.707047 
M262.924957,174.694092 
	C262.410797,174.430664 261.896606,174.167221 261.382416,173.903793 
	C261.386139,174.652588 261.389832,175.401398 261.393555,176.150192 
	C261.905334,175.881653 262.417084,175.613129 262.924957,174.694092 
z"/>
<path fill="#FE3130" opacity="1.000000" stroke="none" 
	d="
M211.004791,200.239258 
	C211.002914,200.975662 210.927444,201.329926 211.016098,201.636749 
	C211.597229,203.647766 212.769623,205.683884 212.645203,207.641647 
	C212.543350,209.244324 210.909973,210.749649 209.536606,212.977814 
	C204.380981,212.013931 198.089325,207.877899 193.054932,214.864471 
	C192.550949,213.289307 192.517624,211.354050 191.699112,210.928299 
	C186.893921,208.428833 188.058350,204.099136 188.022751,200.140152 
	C187.968933,194.158798 188.186066,188.169357 187.942230,182.197479 
	C187.798492,178.677216 188.978958,176.729813 192.550064,176.695435 
	C199.563187,176.627884 206.577423,176.675552 213.577515,176.675552 
	C214.995956,180.191589 207.350143,181.709305 211.743454,186.076096 
	C213.157272,185.080795 214.341385,184.247208 216.540970,182.698746 
	C217.313751,184.828583 218.787170,186.863907 218.434708,188.507736 
	C218.105453,190.043365 215.838013,191.163422 214.344147,192.539627 
	C215.247116,195.752899 216.413208,199.902542 217.579300,204.052185 
	C216.778214,204.337524 215.977142,204.622864 215.176056,204.908188 
	C214.133453,202.508499 213.090836,200.108826 211.890152,197.345322 
	C211.565262,198.261414 211.286194,199.048309 211.004791,200.239258 
M191.152267,189.313690 
	C191.152267,194.331543 191.152267,199.349396 191.152267,204.367249 
	C191.766556,204.344940 192.380829,204.322647 192.995117,204.300339 
	C192.995117,200.917114 193.149780,197.523987 192.933792,194.154617 
	C192.815002,192.301529 192.072403,190.488434 191.152267,189.313690 
z"/>
<path fill="#FE3130" opacity="1.000000" stroke="none" 
	d="
M247.990082,170.423492 
	C249.952423,169.243927 251.917068,168.482346 254.261963,167.386810 
	C255.429230,167.698654 256.216217,168.344437 257.003204,168.990234 
	C259.526825,174.031326 256.252106,179.071106 256.999268,184.557724 
	C252.846497,185.125778 249.925125,184.047928 249.751648,179.028030 
	C249.656769,176.282196 248.609924,173.569260 247.990082,170.423492 
z"/>
<path fill="#FE3130" opacity="1.000000" stroke="none" 
	d="
M256.986481,140.584702 
	C252.564438,140.999603 248.117661,141.153030 243.694016,140.900879 
	C242.439468,140.829391 241.252335,139.575134 240.017365,138.452560 
	C244.444595,138.031296 248.897308,137.865372 253.327393,138.109665 
	C254.575821,138.178513 255.757965,139.449692 256.986481,140.584702 
z"/>
<path fill="#FE3130" opacity="1.000000" stroke="none" 
	d="
M240.284485,169.029022 
	C242.574265,165.103943 243.464310,165.155060 246.866455,169.695923 
	C245.370087,170.620941 243.734222,171.230148 242.011353,171.871765 
	C241.481918,170.842102 241.024826,169.953110 240.284485,169.029022 
z"/>
<path fill="#FEDAD9" opacity="1.000000" stroke="none" 
	d="
M245.160400,176.677032 
	C244.132248,176.220428 243.351349,175.612640 242.225067,174.966766 
	C242.844131,174.590485 243.808548,174.252274 244.772980,173.914062 
	C244.984543,174.784653 245.196091,175.655243 245.160400,176.677032 
z"/>
<path fill="#FEDAD9" opacity="1.000000" stroke="none" 
	d="
M244.923737,178.658600 
	C244.402466,179.068985 243.830338,179.142334 243.258179,179.215683 
	C243.607086,178.550308 243.955978,177.884933 244.563507,177.089417 
	C244.839035,177.413345 244.855942,177.867447 244.923737,178.658600 
z"/>
<path fill="#FE3130" opacity="1.000000" stroke="none" 
	d="
M247.536285,184.549667 
	C247.480499,184.582916 247.592087,184.516418 247.536285,184.549667 
z"/>
<path fill="#ECECEC" opacity="1.000000" stroke="none" 
	d="
M194.833725,302.451508 
	C195.764023,299.240448 196.593201,296.461761 197.804153,292.403687 
	C199.218277,296.867706 200.274002,300.200348 201.775650,304.940674 
	C198.740005,304.054138 196.736313,303.468994 194.833725,302.451508 
z"/>
<path fill="#FFFFFF" opacity="1.000000" stroke="none" 
	d="
M247.025055,209.957428 
	C247.437393,209.013412 247.830338,208.105698 248.223267,207.197998 
	C248.750748,207.635239 249.278214,208.072464 249.805695,208.509705 
	C249.139557,208.988464 248.473404,209.467239 247.442932,209.950760 
	C247.078598,209.955521 247.005661,209.993729 247.025055,209.957428 
z"/>
<path fill="#FFFFFF" opacity="1.000000" stroke="none" 
	d="
M255.565704,203.542404 
	C255.502731,203.582245 255.628662,203.502563 255.565704,203.542404 
z"/>
<path fill="#F6F6F6" opacity="1.000000" stroke="none" 
	d="
M344.287292,346.576477 
	C343.880432,345.595428 343.568237,344.985229 343.464569,344.341492 
	C342.893768,340.796265 342.635406,337.015320 346.344025,335.191071 
	C348.083282,334.335480 352.080292,334.428162 352.582977,335.386841 
	C354.058685,338.201172 355.174133,341.766937 354.816284,344.851044 
	C354.250488,349.726898 349.111023,350.557190 344.287292,346.576477 
z"/>
<path fill="#ECECEC" opacity="1.000000" stroke="none" 
	d="
M378.625977,341.236572 
	C372.243652,342.000000 375.080200,337.667786 375.190308,333.896820 
	C377.282806,334.803802 379.375275,335.710754 381.467773,336.617737 
	C380.657166,338.133911 379.846527,339.650085 378.625977,341.236572 
z"/>
<path fill="#ECECEC" opacity="1.000000" stroke="none" 
	d="
M154.432007,341.130920 
	C154.432114,338.725800 154.432114,336.772369 154.432114,334.883423 
	C161.545578,334.047058 164.420181,335.974731 164.657013,341.343384 
	C164.895828,346.757111 161.807037,349.162170 154.431900,348.775238 
	C154.431900,346.408447 154.431900,343.995544 154.432007,341.130920 
z"/>
<path fill="#FFFFFF" opacity="1.000000" stroke="none" 
	d="
M233.926392,176.180130 
	C234.238144,176.889374 234.434402,177.881210 234.295441,178.922714 
	C233.910461,178.135834 233.860672,177.299271 233.926392,176.180130 
z"/>
<path fill="#F5393A" opacity="1.000000" stroke="none" 
	d="
M257.373596,168.918365 
	C256.216217,168.344437 255.429230,167.698654 254.321121,167.029480 
	C253.291779,166.012039 252.583542,165.017990 251.522842,163.529205 
	C259.177521,163.726639 259.914093,164.476837 257.373596,168.918365 
z"/>
<path fill="#F5393A" opacity="1.000000" stroke="none" 
	d="
M233.492645,165.408051 
	C234.625671,165.109070 235.635483,165.109070 236.645294,165.109070 
	C236.521439,165.693359 236.397568,166.277664 236.273712,166.861954 
	C235.305618,166.476990 234.337524,166.092010 233.492645,165.408051 
z"/>
<path fill="#FE3130" opacity="1.000000" stroke="none" 
	d="
M262.926910,175.019348 
	C262.417084,175.613129 261.905334,175.881653 261.393555,176.150192 
	C261.389832,175.401398 261.386139,174.652588 261.382446,173.903793 
	C261.896606,174.167221 262.410797,174.430664 262.926910,175.019348 
z"/>
<path fill="#F5393A" opacity="1.000000" stroke="none" 
	d="
M191.381653,188.985504 
	C192.072403,190.488434 192.815002,192.301529 192.933792,194.154617 
	C193.149780,197.523987 192.995117,200.917114 192.995117,204.300339 
	C192.380829,204.322647 191.766556,204.344940 191.152267,204.367249 
	C191.152267,199.349396 191.152267,194.331543 191.381653,188.985504 
z"/>
</svg>